<?xml version="1.0" standalone="no"?>
<svg xmlns:xlink="http://www.w3.org/1999/xlink" id="wave" style="transform:rotate(0deg); transition: 0.3s" viewBox="0 0 1440 230" version="1.1" xmlns="http://www.w3.org/2000/svg"><defs><linearGradient id="sw-gradient-0" x1="0" x2="0" y1="1" y2="0"><stop stop-color="rgba(21, 25, 31, 1)" offset="0%"/><stop stop-color="rgba(21, 25, 31, 1)" offset="100%"/></linearGradient></defs><path style="transform:translate(0, 0px); opacity:1" fill="url(#sw-gradient-0)" d="M0,161L80,149.5C160,138,320,115,480,92C640,69,800,46,960,57.5C1120,69,1280,115,1440,126.5C1600,138,1760,115,1920,88.2C2080,61,2240,31,2400,49.8C2560,69,2720,138,2880,168.7C3040,199,3200,192,3360,184C3520,176,3680,169,3840,168.7C4000,169,4160,176,4320,184C4480,192,4640,199,4800,172.5C4960,146,5120,84,5280,80.5C5440,77,5600,130,5760,149.5C5920,169,6080,153,6240,130.3C6400,107,6560,77,6720,84.3C6880,92,7040,138,7200,134.2C7360,130,7520,77,7680,69C7840,61,8000,100,8160,107.3C8320,115,8480,92,8640,95.8C8800,100,8960,130,9120,118.8C9280,107,9440,54,9600,61.3C9760,69,9920,138,10080,161C10240,184,10400,161,10560,138C10720,115,10880,92,11040,80.5C11200,69,11360,69,11440,69L11520,69L11520,230L11440,230C11360,230,11200,230,11040,230C10880,230,10720,230,10560,230C10400,230,10240,230,10080,230C9920,230,9760,230,9600,230C9440,230,9280,230,9120,230C8960,230,8800,230,8640,230C8480,230,8320,230,8160,230C8000,230,7840,230,7680,230C7520,230,7360,230,7200,230C7040,230,6880,230,6720,230C6560,230,6400,230,6240,230C6080,230,5920,230,5760,230C5600,230,5440,230,5280,230C5120,230,4960,230,4800,230C4640,230,4480,230,4320,230C4160,230,4000,230,3840,230C3680,230,3520,230,3360,230C3200,230,3040,230,2880,230C2720,230,2560,230,2400,230C2240,230,2080,230,1920,230C1760,230,1600,230,1440,230C1280,230,1120,230,960,230C800,230,640,230,480,230C320,230,160,230,80,230L0,230Z"/></svg>